<svg xmlns="http://www.w3.org/2000/svg" className="devicon" viewBox="0 0 128 128" fill-rule="evenodd"; clip-rule="evenodd"><path fill="#878787" d="M -0.5,-0.5 C 42.1667,-0.5 84.8333,-0.5 127.5,-0.5C 127.5,42.1667 127.5,84.8333 127.5,127.5C 84.8333,127.5 42.1667,127.5 -0.5,127.5C -0.5,84.8333 -0.5,42.1667 -0.5,-0.5 Z"/><path fill="#878787" d="M 53.5,3.5 C 84.9633,1.15481 107.463,14.1548 121,42.5C 130.413,78.4955 118.579,104.662 85.5,121C 83.2305,121.758 81.0639,121.591 79,120.5C 78.8465,111.45 78.1799,102.45 77,93.5C 76.1667,92.6667 75.3333,91.8333 74.5,91C 97.5042,87.6227 106.337,74.4561 101,51.5C 99.3676,49.0666 97.8676,46.5666 96.5,44C 98.088,38.8151 97.7547,33.8151 95.5,29C 88.8785,28.2811 83.0452,30.1144 78,34.5C 68.0035,31.8883 58.0035,31.8883 48,34.5C 43.6398,31.2938 38.8064,29.2938 33.5,28.5C 32.2284,28.5698 31.0617,28.9032 30,29.5C 29.6667,34.8333 29.3333,40.1667 29,45.5C 25.644,50.2319 23.8107,55.5652 23.5,61.5C 24.0782,79.5794 33.4115,89.4128 51.5,91C 49.7895,93.4562 48.4562,96.1229 47.5,99C 43.0576,101.149 38.7242,100.983 34.5,98.5C 33.8333,99.1667 33.1667,99.8333 32.5,100.5C 31.5597,93.7795 27.5597,89.4462 20.5,87.5C 19.263,87.5565 18.263,88.0565 17.5,89C 20.2802,90.8123 22.7802,92.979 25,95.5C 28.387,106.138 35.5536,110.138 46.5,107.5C 47.8001,112.05 47.8001,116.55 46.5,121C 44.8333,121.667 43.1667,121.667 41.5,121C 7.04045,104.191 -4.79288,77.3578 6,40.5C 15.8913,20.4318 31.7246,8.09848 53.5,3.5 Z"/><path fill="#878787" d="M 25.5,91.5 C 27.337,91.6395 27.6704,92.3061 26.5,93.5C 25.7025,93.0431 25.3691,92.3764 25.5,91.5 Z"/><path fill="#878787" d="M 40.5,101.5 C 42.337,101.639 42.6704,102.306 41.5,103.5C 40.7025,103.043 40.3691,102.376 40.5,101.5 Z"/></svg>