<svg xmlns="http://www.w3.org/2000/svg" className="devicon" viewBox="0 0 128 128"><path fill="#878787" d="M -0.5,-0.5 C 20.1667,-0.5 40.8333,-0.5 61.5,-0.5C 61.5,-0.166667 61.5,0.166667 61.5,0.5C 44.705,-0.939632 33.0384,6.06037 26.5,21.5C 5.22241,29.0578 -2.61092,43.7245 3,65.5C 4.73437,69.1387 6.56771,72.6387 8.5,76C 5.40764,99.3197 15.4076,113.153 38.5,117.5C 40.5288,117.33 42.5288,116.996 44.5,116.5C 49.0114,119.495 53.6781,122.328 58.5,125C 63.4012,126.325 68.4012,126.825 73.5,126.5C 73.5,126.833 73.5,127.167 73.5,127.5C 48.8333,127.5 24.1667,127.5 -0.5,127.5C -0.5,84.8333 -0.5,42.1667 -0.5,-0.5 Z"/><path fill="#878787" d="M 61.5,0.5 C 61.5,0.166667 61.5,-0.166667 61.5,-0.5C 83.5,-0.5 105.5,-0.5 127.5,-0.5C 127.5,42.1667 127.5,84.8333 127.5,127.5C 109.5,127.5 91.5,127.5 73.5,127.5C 73.5,127.167 73.5,126.833 73.5,126.5C 86.8034,125.017 95.8034,118.017 100.5,105.5C 118.752,99.3189 127.252,86.6522 126,67.5C 124.721,62.2754 122.388,57.6087 119,53.5C 122.787,30.6503 113.62,16.1503 91.5,10C 88.1064,9.24828 84.773,9.41495 81.5,10.5C 75.9055,5.03606 69.2388,1.70273 61.5,0.5 Z"/><path fill="#878787" d="M 61.5,0.5 C 69.2388,1.70273 75.9055,5.03606 81.5,10.5C 84.773,9.41495 88.1064,9.24828 91.5,10C 113.62,16.1503 122.787,30.6503 119,53.5C 122.388,57.6087 124.721,62.2754 126,67.5C 127.252,86.6522 118.752,99.3189 100.5,105.5C 95.8034,118.017 86.8034,125.017 73.5,126.5C 68.4012,126.825 63.4012,126.325 58.5,125C 53.6781,122.328 49.0114,119.495 44.5,116.5C 42.5288,116.996 40.5288,117.33 38.5,117.5C 15.4076,113.153 5.40764,99.3197 8.5,76C 6.56771,72.6387 4.73437,69.1387 3,65.5C -2.61092,43.7245 5.22241,29.0578 26.5,21.5C 33.0384,6.06037 44.705,-0.939632 61.5,0.5 Z"/><path fill="#878787" d="M 50.5,8.5 C 58.1872,7.50566 65.1872,9.17233 71.5,13.5C 62.7855,18.9445 53.9522,24.2778 45,29.5C 43.7048,42.0716 43.0381,54.7383 43,67.5C 40.0844,65.9594 37.2511,64.2927 34.5,62.5C 33.334,49.8465 33.1674,37.1798 34,24.5C 37.4377,16.8934 42.9377,11.56 50.5,8.5 Z"/><path fill="#878787" d="M 80.5,18.5 C 100.091,17.1008 110.425,26.1008 111.5,45.5C 101.736,40.7839 92.0691,35.7839 82.5,30.5C 71.6007,36.0613 60.934,42.0613 50.5,48.5C 49.3401,44.5411 49.1735,40.5411 50,36.5C 60.0759,30.2381 70.2425,24.2381 80.5,18.5 Z"/><path fill="#878787" d="M 23.5,31.5 C 24.3303,41.6585 24.8303,51.9919 25,62.5C 25.3742,63.4162 25.8742,64.2496 26.5,65C 36.9971,70.7475 47.3304,76.7475 57.5,83C 54.5,84.6667 51.5,86.3333 48.5,88C 45.2975,87.9137 42.2975,86.9137 39.5,85C 32.1667,80.6667 24.8333,76.3333 17.5,72C 8.74668,62.5488 7.24668,52.0488 13,40.5C 16.1033,36.886 19.6033,33.886 23.5,31.5 Z"/><path fill="#878787" d="M 78.5,38.5 C 89.3232,42.9138 99.6565,48.4138 109.5,55C 118.802,65.2281 119.968,76.3948 113,88.5C 110.278,91.4436 107.111,93.7769 103.5,95.5C 102.668,85.1827 102.168,74.8494 102,64.5C 101.167,63 100,61.8333 98.5,61C 88.669,55.5856 79.0023,49.9189 69.5,44C 72.6717,42.3034 75.6717,40.4701 78.5,38.5 Z"/><path fill="#878787" d="M 62.5,47.5 C 67.5201,49.7615 72.3534,52.4282 77,55.5C 77.6667,60.8333 77.6667,66.1667 77,71.5C 72.5825,74.2926 68.0825,76.9593 63.5,79.5C 58.9175,76.9593 54.4175,74.2926 50,71.5C 49.3333,66.1667 49.3333,60.8333 50,55.5C 54.3161,52.9337 58.4828,50.2671 62.5,47.5 Z"/><path fill="#878787" d="M 83.5,59.5 C 86.6067,60.8887 89.6067,62.5554 92.5,64.5C 92.8333,70.6667 93.1667,76.8333 93.5,83C 96.9802,97.9334 92.3135,109.267 79.5,117C 70.8324,119.893 62.8324,118.726 55.5,113.5C 64.0013,108.082 72.668,102.915 81.5,98C 82.1258,97.2496 82.6258,96.4162 83,95.5C 83.4999,83.5046 83.6665,71.5046 83.5,59.5 Z"/><path fill="#878787" d="M 75.5,78.5 C 76.7943,80.0478 77.4609,82.0478 77.5,84.5C 77.3333,86.5 77.1667,88.5 77,90.5C 67.0322,97.2352 56.5322,103.069 45.5,108C 30.259,110.303 20.4256,104.136 16,89.5C 15.1816,86.7728 15.3483,84.1062 16.5,81.5C 25.8565,86.539 35.1898,91.539 44.5,96.5C 55.3501,91.2466 65.6834,85.2466 75.5,78.5 Z"/></svg>