<svg xmlns="http://www.w3.org/2000/svg" className="devicon" viewBox="0 0 128 128"><path fill="#878787" fill-rule="evenodd" clip-rule="evenodd" d="M 48.5,14.5 C 64.5849,13.2822 74.9183,20.2822 79.5,35.5C 79.2547,38.1683 77.9214,40.0016 75.5,41C 69.0582,41.0827 62.7248,41.7493 56.5,43C 55.7894,44.2547 54.956,45.4214 54,46.5C 56.1413,69.7631 48.8079,73.4297 32,57.5C 23.0329,42.6281 25.1996,29.6281 38.5,18.5C 41.8646,16.9409 45.1979,15.6076 48.5,14.5 Z"/><path fill="#FFFF" fill-rule="evenodd" clip-rule="evenodd" d="M 82.5,47.5 C 93.6636,48.4982 99.6636,54.6649 100.5,66C 97.3126,84.0772 86.9793,90.0772 69.5,84C 65.1386,80.7635 62.1386,76.5968 60.5,71.5C 61.269,68.8956 62.9357,67.0623 65.5,66C 69.8554,65.8902 74.0221,65.0568 78,63.5C 79.1901,59.6192 79.8568,55.6192 80,51.5C 80.4796,49.867 81.3129,48.5336 82.5,47.5 Z"/><path fill="#FFFF" fill-rule="evenodd" clip-rule="evenodd" d="M 45.5,73.5 C 48.3795,73.0325 50.7129,73.8659 52.5,76C 52.9121,80.8496 53.9121,85.5162 55.5,90C 59.9435,91.9403 64.6101,92.9403 69.5,93C 72.2072,94.8637 73.0405,97.3637 72,100.5C 65.7844,111.358 56.6177,114.858 44.5,111C 31.6362,102.37 29.4696,91.5369 38,78.5C 40.4256,76.5476 42.9256,74.881 45.5,73.5 Z"/></svg>