<svg xmlns="http://www.w3.org/2000/svg" className="devicon" viewBox="0 0 128 128"><path fill="#FFFF" fill-rule="evenodd" clip-rule="evenodd" d="M 107.5,33.5 C 133.849,30.6535 154.016,40.3202 168,62.5C 170.549,67.428 172.383,72.5947 173.5,78C 172.405,83.7699 169.072,87.7699 163.5,90C 152.5,90.3333 141.5,90.6667 130.5,91C 124.075,92.4269 119.908,96.2602 118,102.5C 117.918,114.89 117.251,127.223 116,139.5C 110.553,146.996 103.72,148.496 95.5,144C 72.9252,133.368 60.9252,115.534 59.5,90.5C 61.871,59.8111 77.871,40.8111 107.5,33.5 Z"/><path fill="#FFFF" fill-rule="evenodd" clip-rule="evenodd" d="M 183.5,104.5 C 202.092,107.25 213.592,117.917 218,136.5C 221.08,156.496 214.247,171.996 197.5,183C 175.152,193.264 155.985,189.098 140,170.5C 138.076,166.983 136.409,163.316 135,159.5C 134.333,157.833 134.333,156.167 135,154.5C 136.793,151.705 138.96,149.205 141.5,147C 148.755,145.775 156.089,145.108 163.5,145C 169.36,143.141 173.193,139.307 175,133.5C 175.333,127.167 175.667,120.833 176,114.5C 177.317,110.163 179.817,106.83 183.5,104.5 Z"/><path fill="#FFFF" fill-rule="evenodd" clip-rule="evenodd" d="M 100.5,162.5 C 106.898,161.053 111.731,163.053 115,168.5C 116.26,175.394 116.926,182.394 117,189.5C 119.046,197.544 124.213,202.044 132.5,203C 138.167,203.333 143.833,203.667 149.5,204C 152.295,205.793 154.795,207.96 157,210.5C 157.667,213.5 157.667,216.5 157,219.5C 144.459,243.178 125.293,251.012 99.5,243C 76.9118,230.244 69.4118,211.411 77,186.5C 81.687,175.314 89.5203,167.314 100.5,162.5 Z"/></svg>