<svg xmlns="http://www.w3.org/2000/svg" className="devicon" viewBox="0 0 128 128"><path style="opacity:1" fill-rule="evenodd" clip-rule="evenodd" fill="#878787" d="M 50.5,0.5 C 61.7988,-1.0965 71.4654,2.07016 79.5,10C 102.861,8.32707 116.194,18.9937 119.5,42C 119.151,45.2435 118.485,48.4102 117.5,51.5C 127.547,65.1538 128.047,79.1538 119,93.5C 113.892,98.974 107.725,102.807 100.5,105C 92.6017,123.115 78.935,129.781 59.5,125C 54.9559,123.118 50.9559,120.451 47.5,117C 30.0451,118.862 17.5451,112.029 10,96.5C 7.02664,89.5403 6.85998,82.5403 9.5,75.5C -0.54527,61.8589 -1.04527,47.8589 8,33.5C 12.8803,27.6241 19.0469,23.7907 26.5,22C 31.2692,11.056 39.2692,3.8893 50.5,0.5 Z M 54.5,7.5 C 61.2892,7.59543 67.2892,9.76209 72.5,14C 63.0847,19.1227 53.9181,24.6227 45,30.5C 44.6667,43.1667 44.3333,55.8333 44,68.5C 40.4186,66.6265 36.9186,64.6265 33.5,62.5C 32.3341,50.8476 32.1675,39.1809 33,27.5C 35.9125,16.1471 43.0792,9.4804 54.5,7.5 Z M 84.5,17.5 C 103.13,18.4545 111.796,28.1211 110.5,46.5C 101.424,40.7668 92.0908,35.4335 82.5,30.5C 71.4204,36.4549 60.5871,42.7882 50,49.5C 49.1717,44.798 49.3384,40.1313 50.5,35.5C 61.3818,28.3955 72.7151,22.3955 84.5,17.5 Z M 24.5,30.5 C 25.3305,41.3257 25.8305,52.3257 26,63.5C 36.417,69.959 46.917,76.2924 57.5,82.5C 54.1237,85.1941 50.457,87.5274 46.5,89.5C 37.2968,83.8007 27.9635,78.3007 18.5,73C 7.37402,62.7141 5.87402,51.2141 14,38.5C 16.94,34.9632 20.44,32.2965 24.5,30.5 Z M 79.5,37.5 C 89.261,42.7443 98.9276,48.2443 108.5,54C 119.357,63.6868 121.19,74.8535 114,87.5C 110.883,91.4542 107.05,94.4542 102.5,96.5C 101.668,85.5151 101.168,74.5151 101,63.5C 90.583,57.041 80.083,50.7076 69.5,44.5C 72.8514,42.1414 76.1847,39.8081 79.5,37.5 Z M 62.5,47.5 C 67.4235,49.2951 72.0901,51.6284 76.5,54.5C 77.8333,60.5 77.8333,66.5 76.5,72.5C 72.326,75.0877 67.9926,77.421 63.5,79.5C 59.0074,77.421 54.674,75.0877 50.5,72.5C 49.1667,66.5 49.1667,60.5 50.5,54.5C 54.563,52.1401 58.563,49.8067 62.5,47.5 Z M 82.5,58.5 C 86.2726,60.2212 89.9392,62.2212 93.5,64.5C 94.6659,76.1524 94.8325,87.8191 94,99.5C 89.196,115.295 78.696,121.462 62.5,118C 59.4968,116.834 56.8302,115.167 54.5,113C 63.9153,107.877 73.0819,102.377 82,96.5C 82.4999,83.8377 82.6666,71.1711 82.5,58.5 Z M 76.5,77.5 C 77.8124,82.0152 77.8124,86.6819 76.5,91.5C 66.8333,97 57.1667,102.5 47.5,108C 31.8352,111.418 21.3352,105.585 16,90.5C 15.1764,87.1177 15.343,83.7844 16.5,80.5C 25.5759,86.2332 34.9092,91.5665 44.5,96.5C 55.5602,90.6442 66.2269,84.3109 76.5,77.5 Z"/></svg>